<?xml version="1.0" encoding="UTF-8"?>
<svg width="1024" height="1024" viewBox="0 0 1024 1024" fill="none" xmlns="http://www.w3.org/2000/svg">
  <title>Oh My Pi</title>
  <defs>
    <radialGradient id="ompIconBg" cx="34%" cy="22%" r="78%">
      <stop offset="0%" stop-color="#7DB7FF"/>
      <stop offset="42%" stop-color="#3B246F"/>
      <stop offset="74%" stop-color="#172033"/>
      <stop offset="100%" stop-color="#080C18"/>
    </radialGradient>
    <linearGradient id="ompIconOrbit" x1="128" y1="384" x2="896" y2="640" gradientUnits="userSpaceOnUse">
      <stop stop-color="#B6A7FF"/>
      <stop offset="0.52" stop-color="#8C5CFF"/>
      <stop offset="1" stop-color="#8BE9FF"/>
    </linearGradient>
    <linearGradient id="ompIconMark" x1="248" y1="304" x2="736" y2="768" gradientUnits="userSpaceOnUse">
      <stop stop-color="#EFF6FF"/>
      <stop offset="0.48" stop-color="#8BE9FF"/>
      <stop offset="1" stop-color="#7DB7FF"/>
    </linearGradient>
    <filter id="ompIconGlow" x="72" y="64" width="880" height="888" color-interpolation-filters="sRGB" filterUnits="userSpaceOnUse">
      <feGaussianBlur stdDeviation="24"/>
    </filter>
  </defs>
  <rect x="32" y="32" width="960" height="960" rx="224" fill="url(#ompIconBg)"/>
  <ellipse
    cx="512"
    cy="544"
    rx="376"
    ry="168"
    transform="rotate(-31 512 544)"
    fill="none"
    stroke="url(#ompIconOrbit)"
    stroke-width="36"
    opacity="0.72"
  />
  <ellipse
    cx="512"
    cy="544"
    rx="376"
    ry="168"
    transform="rotate(-31 512 544)"
    fill="none"
    stroke="#8BE9FF"
    stroke-width="22"
    opacity="0.18"
    filter="url(#ompIconGlow)"
  />
  <path
    d="M248 304h528a64 64 0 0 1 0 128H676v320a64 64 0 0 1-128 0V432H436v320a64 64 0 0 1-128 0V432h-60a64 64 0 0 1 0-128z"
    fill="url(#ompIconMark)"
  />
  <path
    d="M776 216h32v32h32v32h-32v32h-32v-32h-32v-32h32zM208 616h24v24h24v24h-24v24h-24v-24h-24v-24h24zM832 632h20v20h20v20h-20v20h-20v-20h-20v-20h20z"
    fill="#EFF6FF"
    opacity="0.9"
  />
</svg>
