<?xml version="1.0" encoding="UTF-8"?>
<svg width="32" height="32" viewBox="0 0 32 32" fill="none" xmlns="http://www.w3.org/2000/svg">
  <title>Oh My Pi</title>
  <defs>
    <linearGradient id="ompProviderBg" x1="5" y1="4" x2="28" y2="29" gradientUnits="userSpaceOnUse">
      <stop stop-color="#7DB7FF"/>
      <stop offset="0.44" stop-color="#8C5CFF"/>
      <stop offset="1" stop-color="#E34FFF"/>
    </linearGradient>
    <linearGradient id="ompProviderMark" x1="8" y1="9" x2="23" y2="24" gradientUnits="userSpaceOnUse">
      <stop stop-color="#EFF6FF"/>
      <stop offset="0.55" stop-color="#8BE9FF"/>
      <stop offset="1" stop-color="#F5F0EA"/>
    </linearGradient>
  </defs>
  <rect x="2" y="2" width="28" height="28" rx="7" fill="url(#ompProviderBg)"/>
  <path
    d="M7.75 9.5h16.5a2 2 0 0 1 0 4h-3.125v10a2 2 0 0 1-4 0v-10h-3.5v10a2 2 0 0 1-4 0v-10H7.75a2 2 0 0 1 0-4z"
    fill="url(#ompProviderMark)"
  />
  <path d="M24.3 6.8h1.2v1.2h1.2v1.2h-1.2v1.2h-1.2V9.2h-1.2V8h1.2z" fill="#EFF6FF" opacity="0.9"/>
</svg>
