<svg width="128" height="128" viewBox="0 0 128 128" fill="none" xmlns="http://www.w3.org/2000/svg">
  <title>Oh My Pi</title>
  <defs>
    <radialGradient id="ompLogoBg" cx="34%" cy="22%" r="78%">
      <stop offset="0%" stop-color="#7DB7FF"/>
      <stop offset="42%" stop-color="#3B246F"/>
      <stop offset="74%" stop-color="#172033"/>
      <stop offset="100%" stop-color="#080C18"/>
    </radialGradient>
    <linearGradient id="ompLogoOrbit" x1="16" y1="48" x2="112" y2="80" gradientUnits="userSpaceOnUse">
      <stop stop-color="#B6A7FF"/>
      <stop offset="0.52" stop-color="#8C5CFF"/>
      <stop offset="1" stop-color="#8BE9FF"/>
    </linearGradient>
    <linearGradient id="ompLogoMark" x1="31" y1="38" x2="92" y2="96" gradientUnits="userSpaceOnUse">
      <stop stop-color="#EFF6FF"/>
      <stop offset="0.48" stop-color="#8BE9FF"/>
      <stop offset="1" stop-color="#7DB7FF"/>
    </linearGradient>
  </defs>
  <rect x="4" y="4" width="120" height="120" rx="28" fill="url(#ompLogoBg)"/>
  <ellipse
    cx="64"
    cy="68"
    rx="47"
    ry="21"
    transform="rotate(-31 64 68)"
    fill="none"
    stroke="url(#ompLogoOrbit)"
    stroke-width="4.5"
    opacity="0.72"
  />
  <path
    d="M31 38h66a8 8 0 0 1 0 16H84.5v40a8 8 0 0 1-16 0V54h-14v40a8 8 0 0 1-16 0V54H31a8 8 0 0 1 0-16z"
    fill="url(#ompLogoMark)"
  />
  <path
    d="M97 27h4v4h4v4h-4v4h-4v-4h-4v-4h4zM26 77h3v3h3v3h-3v3h-3v-3h-3v-3h3zM104 79h2.5v2.5h2.5V84h-2.5v2.5H104V84h-2.5v-2.5h2.5z"
    fill="#EFF6FF"
    opacity="0.9"
  />
</svg>
